<svg width="80" height="80" fill="none" xmlns="http://www.w3.org/2000/svg"><path d="M31.177 19.048c-6.68 0-12.13 5.447-12.13 12.13v17.645c0 6.68 5.448 12.13 12.13 12.13h17.646c6.68 0 12.13-5.448 12.13-12.13V31.177c0-6.68-5.448-12.13-12.13-12.13H31.177zm0 4.411h17.646a7.657 7.657 0 017.718 7.718v17.646a7.655 7.655 0 01-7.718 7.718H31.177a7.656 7.656 0 01-7.718-7.718V31.177a7.657 7.657 0 017.718-7.718zm19.85 3.309a2.203 2.203 0 100 4.405 2.203 2.203 0 000-4.405zM40 28.419c-6.37 0-11.58 5.21-11.58 11.58 0 6.369 5.21 11.578 11.58 11.578s11.579-5.21 11.579-11.579c0-6.37-5.21-11.579-11.579-11.579zm0 4.412A7.135 7.135 0 0147.168 40 7.135 7.135 0 0140 47.168 7.135 7.135 0 0132.832 40 7.137 7.137 0 0140 32.832v-.002z" fill="#fff"/></svg>