<svg width="80" height="80" fill="none" xmlns="http://www.w3.org/2000/svg"><path d="M64.762 27.732a18.818 18.818 0 01-5.387 1.48 9.379 9.379 0 004.122-5.187 18.937 18.937 0 01-5.96 2.278A9.326 9.326 0 0050.7 23.34a9.375 9.375 0 00-9.137 11.51 26.626 26.626 0 01-19.33-9.8 9.272 9.272 0 00-1.264 4.71 9.354 9.354 0 004.165 7.807 9.265 9.265 0 01-4.247-1.177v.12c0 4.539 3.238 8.333 7.524 9.196a9.585 9.585 0 01-2.473.327 9.19 9.19 0 01-1.764-.171 9.379 9.379 0 008.758 6.51 18.81 18.81 0 01-13.883 3.877 26.522 26.522 0 0014.375 4.219c17.247 0 26.682-14.286 26.682-26.682l-.03-1.212a18.725 18.725 0 004.687-4.844z" fill="#fff"/></svg>