<svg width="80" height="80" fill="none" xmlns="http://www.w3.org/2000/svg"><path d="M58.836 51.118a3.084 3.084 0 00-.137-.26c-.693-1.252-2.019-2.787-3.977-4.61l-.042-.042-.019-.02-.021-.022h-.02c-.89-.848-1.452-1.417-1.688-1.71-.431-.557-.528-1.119-.292-1.69.166-.43.79-1.341 1.874-2.732.57-.737 1.02-1.327 1.353-1.771 2.402-3.2 3.444-5.244 3.123-6.133l-.123-.21c-.082-.124-.297-.24-.644-.343-.349-.104-.792-.122-1.333-.053l-6 .042a.778.778 0 00-.416.011l-.27.063-.105.051-.084.063a.926.926 0 00-.228.22c-.087.11-.157.233-.208.363a34.088 34.088 0 01-2.229 4.694c-.514.862-.984 1.61-1.417 2.243a10.76 10.76 0 01-1.081 1.397 7.57 7.57 0 01-.793.72c-.236.18-.415.257-.54.228a14.77 14.77 0 01-.355-.082 1.386 1.386 0 01-.469-.512 2.29 2.29 0 01-.238-.814 8.994 8.994 0 01-.074-.843 17.62 17.62 0 01.011-1.002c.014-.43.02-.724.02-.876 0-.528.01-1.103.032-1.72l.051-1.47c.015-.363.021-.746.021-1.15 0-.401-.025-.718-.072-.948a3.257 3.257 0 00-.217-.667 1.123 1.123 0 00-.429-.5 2.402 2.402 0 00-.697-.283c-.735-.167-1.672-.257-2.812-.27-2.582-.029-4.241.14-4.977.5-.3.158-.568.37-.792.626-.248.304-.286.472-.103.5.833.124 1.423.423 1.77.896l.125.251c.096.181.195.501.292.96.095.457.16.966.186 1.522.069 1.016.069 1.886 0 2.608a28.156 28.156 0 01-.198 1.69 3.382 3.382 0 01-.531 1.438.358.358 0 01-.103.104c-.18.07-.371.105-.564.105-.194 0-.43-.097-.706-.291a5.004 5.004 0 01-.865-.804 10.739 10.739 0 01-1.01-1.429 24.768 24.768 0 01-1.167-2.17l-.334-.605a55.742 55.742 0 01-.853-1.7 32.471 32.471 0 01-.958-2.16 1.375 1.375 0 00-.5-.666l-.104-.063a1.426 1.426 0 00-.333-.177 2.208 2.208 0 00-.478-.135l-5.707.042c-.583 0-.979.133-1.187.396l-.084.126a.677.677 0 00-.062.333c0 .152.042.341.125.562a69.258 69.258 0 002.717 5.676c.979 1.82 1.828 3.288 2.552 4.4a51.517 51.517 0 002.208 3.149c.748.986 1.245 1.619 1.487 1.899.244.278.434.486.573.625l.522.5c.334.334.821.734 1.467 1.2.648.465 1.362.924 2.147 1.376.785.453 1.695.82 2.737 1.105 1.042.285 2.057.4 3.042.346h2.394c.486-.044.853-.196 1.105-.459l.082-.105c.071-.12.124-.25.156-.386.05-.172.072-.364.072-.572a6.88 6.88 0 01.136-1.619c.104-.478.222-.84.354-1.084.193-.364.468-.678.804-.918a1.42 1.42 0 01.165-.072c.334-.11.724-.004 1.178.324.451.327.874.73 1.27 1.21s.87 1.018 1.427 1.617c.554.598 1.04 1.041 1.457 1.333l.417.251c.278.168.638.32 1.082.46.444.138.832.173 1.168.104l5.33-.084c.527 0 .938-.087 1.23-.26.29-.174.464-.366.52-.574.056-.233.06-.476.01-.71a2.62 2.62 0 00-.146-.553z" fill="#fff"/></svg>