<svg width="45" height="45" fill="none" xmlns="http://www.w3.org/2000/svg"><path fill-rule="evenodd" clip-rule="evenodd" d="M.42 22.5C.42 10.073 10.203 0 22.272 0 34.34 0 44.124 10.073 44.124 22.5c0 12.426-9.784 22.5-21.852 22.5C10.203 45 .42 34.926.42 22.5zM37.227 7.1C33.232 2.988 27.921.723 22.272.723c-5.65 0-10.961 2.265-14.956 6.379-3.995 4.113-6.195 9.582-6.195 15.399 0 5.817 2.2 11.286 6.195 15.399 3.995 4.113 9.306 6.379 14.956 6.379s10.96-2.266 14.955-6.379c3.995-4.113 6.195-9.582 6.195-15.4 0-5.816-2.2-11.285-6.195-15.398z" fill="#000"/><path fill-rule="evenodd" clip-rule="evenodd" d="M17.79 12.708c0 .047 0 .094.002.14h8.968v-.492a3.768 3.768 0 00-.062-.414c-.245-1.199-1.058-2.215-2.172-2.804l.685-1.302a.169.169 0 00-.065-.226.159.159 0 00-.218.067l-.695 1.319a4.81 4.81 0 00-1.95-.408 4.81 4.81 0 00-1.964.414l-.698-1.325a.16.16 0 00-.218-.067.169.169 0 00-.065.226l.689 1.309c-1.063.566-1.848 1.52-2.127 2.651-.072.293-.11.599-.11.912zm2.44-1.495a.428.428 0 01-.421-.435c0-.24.188-.435.422-.435.233 0 .422.195.422.435s-.19.434-.422.434zm-2.45 1.994h8.988v6.74c0 .563-.447 1.023-.993 1.023h-.834v2.35c0 .564-.445 1.021-.993 1.021-.549 0-.994-.457-.994-1.022v-2.35h-1.338v2.35c0 .565-.444 1.022-.993 1.022-.548 0-.993-.457-.993-1.022v-2.35h-.856c-.546 0-.993-.46-.993-1.022v-6.74zm6.116-2.43c0 .24.19.436.422.436a.429.429 0 00.423-.435.429.429 0 00-.422-.435.428.428 0 00-.422.435zm5.209 3.273c0-.564-.445-1.022-.993-1.022-.549 0-.993.458-.993 1.022v4.295c0 .565.444 1.022.993 1.022.548 0 .993-.457.993-1.022V14.05zm-11.68 4.295V14.05c0-.564-.445-1.022-.993-1.022s-.993.458-.993 1.022v4.295c0 .565.445 1.022.993 1.022s.993-.457.993-1.022zM12.276 36.76v-3.233a3.469 3.469 0 002.518 1.054c2.161 0 3.875-1.82 3.875-4.06 0-2.25-1.714-4.069-3.875-4.069-1.001 0-1.88.398-2.518 1.047v-.89H11.14v10.15h1.137zm14.69-2.343v-7.809h-1.138v.89a3.462 3.462 0 00-2.518-1.046c-2.169 0-3.875 1.812-3.875 4.053 0 2.249 1.706 4.068 3.875 4.068 1.001 0 1.88-.398 2.518-1.047v.89h1.137zm8.273-7.816h-1.281l-2.5 6.162-2.49-6.154h-1.32l3.147 7.52-.25.585c-.28.648-.812.929-1.32.929h-.417v1.18h.402c1.13 0 2.025-.626 2.503-1.812l3.526-8.41zM20.58 30.505c0 1.616 1.259 2.928 2.814 2.928.97 0 1.842-.5 2.35-1.28a.481.481 0 00.084-.266v-2.772c0-.113-.039-.187-.064-.235l-.012-.023c-.47-.804-1.388-1.272-2.358-1.272-1.555 0-2.814 1.311-2.814 2.92zm-8.228 1.663c.486.796 1.388 1.273 2.359 1.273 1.547 0 2.806-1.312 2.806-2.92 0-1.617-1.26-2.929-2.806-2.929-.971 0-1.843.477-2.351 1.257a.47.47 0 00-.084.258v2.803c0 .133.046.211.076.258z" fill="#000"/></svg>