<svg width="52" height="25" fill="none" xmlns="http://www.w3.org/2000/svg"><path fill-rule="evenodd" clip-rule="evenodd" d="M11.364 3.616c.672-.792 1.125-1.895 1.001-2.993-.97.038-2.142.629-2.837 1.421-.623.701-1.169 1.823-1.021 2.899 1.08.081 2.184-.535 2.857-1.327zm2.423 6.964c.027 2.78 2.456 3.742 2.58 3.79l.005.003-.003.01c-.043.135-.43 1.376-1.33 2.655-.803 1.142-1.636 2.28-2.948 2.303-.63.012-1.051-.166-1.489-.35-.459-.193-.935-.394-1.69-.394-.788 0-1.287.207-1.768.406-.416.173-.82.34-1.386.361-1.267.047-2.232-1.234-3.04-2.372C1.063 14.665-.2 10.417 1.496 7.55c.843-1.424 2.35-2.325 3.985-2.35.705-.012 1.387.251 1.984.482.457.176.864.333 1.194.333.295 0 .69-.151 1.152-.329.727-.279 1.617-.62 2.534-.53.628.026 2.39.247 3.522 1.86l-.005.003c-.147.086-2.098 1.226-2.076 3.562zm8.958-8.549a29.69 29.69 0 00-1.649.228v16.842h1.212v-7.283c.55.118 1.227.176 2.035.176.893 0 1.717-.11 2.473-.328a5.487 5.487 0 001.959-1 4.781 4.781 0 001.3-1.655c.318-.658.478-1.425.478-2.301 0-.725-.117-1.366-.348-1.922a4.316 4.316 0 00-.966-1.442c-.481-.455-1.095-.805-1.843-1.05-.747-.244-1.635-.366-2.666-.366-.663-.003-1.325.03-1.985.101zm-.437 8.726c.292.083.618.143.98.176.36.034.746.05 1.158.05 1.546 0 2.744-.354 3.595-1.062.85-.707 1.275-1.744 1.275-3.11 0-.657-.112-1.23-.335-1.72a3.087 3.087 0 00-.953-1.2 4.38 4.38 0 00-1.469-.709 6.885 6.885 0 00-1.88-.24c-.55 0-1.022.02-1.418.063a9.726 9.726 0 00-.953.139v7.613zm17.902 6.929a42.204 42.204 0 01-.026-1.467l.002-4.78c0-.556-.056-1.117-.167-1.682a4.11 4.11 0 00-.632-1.53 3.459 3.459 0 00-1.275-1.112c-.541-.287-1.242-.43-2.101-.43a6.879 6.879 0 00-1.829.241 5.77 5.77 0 00-1.7.796l.387.886a5.394 5.394 0 011.43-.67 5.396 5.396 0 011.584-.24c.704 0 1.263.126 1.675.379.412.253.721.564.927.935.204.365.339.763.4 1.176.056.364.086.732.09 1.1v.33c-2.474-.035-4.325.336-5.553 1.112-1.228.776-1.842 1.88-1.842 3.313.001.414.075.825.218 1.214.143.4.367.765.657 1.074.291.313.665.566 1.12.76.456.193.984.29 1.586.29.48 0 .923-.059 1.327-.177a4.456 4.456 0 001.082-.468c.302-.183.583-.399.837-.645.222-.214.42-.452.593-.708h.05l.181 1.72h1.134a9.478 9.478 0 01-.155-1.417zm-1.236-5.083c-.684-.016-1.368.01-2.05.076a7.567 7.567 0 00-1.97.443c-.601.227-1.1.56-1.494.999-.395.438-.593 1.02-.593 1.745 0 .86.249 1.492.747 1.897a2.586 2.586 0 001.674.607 4.13 4.13 0 001.34-.202 3.521 3.521 0 001.03-.544c.283-.218.53-.478.735-.771.19-.273.342-.57.451-.885.086-.338.129-.583.13-.735v-2.63zm6.723 2.251l-3.144-7.891h-1.288l4.457 11.255c.104.236.155.413.155.531 0 .085-.052.261-.155.531-.292.708-.623 1.311-.992 1.809-.37.497-.708.898-1.018 1.201-.36.354-.73.64-1.108.86-.377.219-.721.396-1.03.53l.412.987c.137-.05.408-.173.811-.367.404-.194.847-.502 1.327-.923.423-.365.8-.781 1.122-1.24.335-.471.665-1.015.991-1.63.355-.676.677-1.368.966-2.074.351-.851.69-1.707 1.018-2.567l3.582-8.903h-1.289l-2.938 7.84c-.188.489-.36.966-.514 1.43-.154.463-.292.88-.412 1.252h-.052c-.12-.39-.257-.815-.412-1.278a27.237 27.237 0 00-.49-1.353z" fill="#000"/></svg>