<svg width="92" height="23" fill="none" xmlns="http://www.w3.org/2000/svg"><path fill-rule="evenodd" clip-rule="evenodd" d="M29.164 5.192h5.066c1.696 0 2.973.454 3.693 1.312.655.781.872 1.897.646 3.317-.503 3.246-2.43 4.884-5.766 4.884h-1.604a.706.706 0 00-.695.603l-.552 3.554a.707.707 0 01-.696.604h-2.418a.426.426 0 01-.418-.495l2.049-13.177a.707.707 0 01.695-.602zm2.642 6.656c1.343 0 2.732 0 3.009-1.844.101-.647.02-1.116-.246-1.432-.446-.529-1.309-.529-2.224-.529h-.35a.424.424 0 00-.417.362l-.537 3.443h.765zm15.141-1.903h2.426c.26 0 .458.235.416.495l-1.311 8.422a.707.707 0 01-.696.603h-2.185a.426.426 0 01-.416-.496l.108-.684s-1.198 1.41-3.358 1.41c-1.258 0-2.316-.37-3.055-1.253-.806-.96-1.136-2.339-.904-3.78.446-2.889 2.736-4.948 5.416-4.948 1.17 0 2.34.258 2.866 1.031l.17.25.107-.688a.424.424 0 01.416-.362zm-3.692 7.139c1.403 0 2.503-.944 2.737-2.35.106-.68-.04-1.298-.41-1.74-.37-.439-.93-.671-1.618-.671-1.382 0-2.5.974-2.719 2.368-.114.684.023 1.298.381 1.729.362.434.925.663 1.629.663z" fill="#000"/><path d="M62.293 9.945h-2.437a.703.703 0 00-.583.313l-3.363 5.024-1.425-4.828a.707.707 0 00-.675-.51h-2.396a.428.428 0 00-.4.567l2.685 7.994-2.525 3.614a.428.428 0 00.345.677h2.434a.7.7 0 00.579-.307l8.108-11.872a.428.428 0 00-.347-.672z" fill="#000"/><path fill-rule="evenodd" clip-rule="evenodd" d="M65.298 5.192h5.067c1.695 0 2.971.454 3.69 1.312.656.781.875 1.897.647 3.317-.503 3.246-2.429 4.884-5.766 4.884h-1.603a.706.706 0 00-.695.603l-.582 3.735a.495.495 0 01-.486.423h-2.6a.426.426 0 01-.416-.495l2.049-13.177a.707.707 0 01.695-.602zm2.642 6.656c1.344 0 2.733 0 3.009-1.844.101-.647.02-1.116-.245-1.432-.446-.529-1.31-.529-2.224-.529h-.35a.422.422 0 00-.417.362l-.537 3.443h.764zm15.142-1.903h2.425c.26 0 .458.235.418.495l-1.312 8.422a.707.707 0 01-.695.603h-2.184a.426.426 0 01-.418-.496l.108-.684s-1.198 1.41-3.358 1.41c-1.258 0-2.314-.37-3.055-1.253-.806-.96-1.134-2.339-.903-3.78.446-2.889 2.735-4.948 5.416-4.948 1.168 0 2.339.258 2.864 1.031l.17.25.108-.688a.422.422 0 01.416-.362zm-3.694 7.139c1.403 0 2.505-.944 2.737-2.35.108-.68-.039-1.298-.41-1.74-.369-.439-.929-.671-1.618-.671-1.381 0-2.498.974-2.718 2.368-.113.684.022 1.298.38 1.729.362.434.926.663 1.63.663z" fill="#000"/><path d="M88.367 5.553l-2.08 13.418c-.04.26.158.494.417.494h2.09a.706.706 0 00.696-.603l2.05-13.176a.426.426 0 00-.416-.495h-2.34a.425.425 0 00-.417.362zM5.382 22.026l.388-2.496-.863-.02H.787L3.65 1.092a.244.244 0 01.08-.145.232.232 0 01.152-.057h6.949c2.306 0 3.898.487 4.73 1.448.389.45.637.922.757 1.44.126.544.128 1.194.005 1.987l-.009.058v.508l.39.224c.328.176.589.378.789.61.333.385.549.875.64 1.456.094.597.063 1.308-.091 2.113-.178.925-.466 1.732-.854 2.391a4.893 4.893 0 01-1.351 1.503 5.448 5.448 0 01-1.821.833c-.671.178-1.437.267-2.276.267h-.54c-.387 0-.763.141-1.058.395a1.667 1.667 0 00-.55.997l-.041.225-.685 4.4-.031.16c-.008.052-.022.078-.043.095a.113.113 0 01-.071.026H5.382z" fill="#000"/><path d="M17.073 5.881a12.44 12.44 0 01-.072.413c-.916 4.772-4.05 6.42-8.054 6.42H6.908a.994.994 0 00-.978.851L4.886 20.28l-.296 1.904a.527.527 0 00.515.611h3.616a.874.874 0 00.859-.744l.036-.186.68-4.382.044-.24a.873.873 0 01.86-.746h.54c3.503 0 6.245-1.442 7.047-5.617.335-1.744.161-3.2-.725-4.224a3.463 3.463 0 00-.99-.774z" fill="#000"/><path d="M16.114 5.494a7.13 7.13 0 00-.891-.201c-.55-.09-1.152-.133-1.797-.133H7.98a.855.855 0 00-.376.086.88.88 0 00-.482.66l-1.159 7.442-.033.217a.994.994 0 01.978-.85h2.039c4.003 0 7.138-1.649 8.055-6.42.026-.142.05-.28.07-.414a4.843 4.843 0 00-.958-.388z" fill="#000"/><path d="M7.122 5.905a.88.88 0 01.482-.659.855.855 0 01.376-.086h5.446c.645 0 1.247.043 1.797.133a7.13 7.13 0 01.891.2l.205.066c.27.09.522.197.754.322.272-1.763-.002-2.964-.942-4.051C15.095.633 13.224.12 10.831.12H3.883a.997.997 0 00-.982.852L.007 19.579c-.057.369.223.7.59.7h4.289l1.077-6.93 1.159-7.444z" fill="#000"/></svg>