<svg width="110" height="18" fill="none" xmlns="http://www.w3.org/2000/svg"><path fill-rule="evenodd" clip-rule="evenodd" d="M78.118.634c-1.24 0-2.456.456-3.405 1.317V.938h-2.578v16.226h2.554v-5.417a5.321 5.321 0 003.404 1.316c3.064 0 5.57-2.784 5.57-6.201 0-3.418-2.457-6.228-5.545-6.228zM94.07 1.9V.938h2.553v11.898H94.07v-1.064a5.206 5.206 0 01-3.38 1.266c-3.089 0-5.57-2.784-5.57-6.202 0-3.417 2.505-6.202 5.57-6.202 1.24 0 2.431.456 3.38 1.266zm-6.445 4.936c0 2.152 1.508 3.873 3.356 3.873 1.849 0 3.356-1.696 3.356-3.848 0-2.151-1.507-3.873-3.355-3.873-1.849 0-3.357 1.696-3.357 3.848zm-13.156 0c0 2.152 1.508 3.873 3.356 3.873 1.848 0 3.356-1.72 3.356-3.873 0-2.151-1.508-3.873-3.356-3.873-1.848 0-3.356 1.722-3.356 3.873zM107.495.938l-3.283 8.1-3.502-8.1h-2.53l4.816 11.138-2.067 5.088h2.505L110 .938h-2.505zM56.012 10.43l-.122-7.848h2.383v9.898h-3.429l-2.383-8.126h-.048l.121 8.126h-2.359V2.583h3.575l2.213 7.848h.049zM10.657 2.583l-1.775 10h2.602l1.313-9.088h.049l1.289 9.087h2.577l-1.775-9.999h-4.28zm13.327 7.645l1.191-7.645h3.892l.218 10h-2.407l-.049-8.987h-.049l-1.605 8.986h-2.431l-1.63-8.986h-.048l-.05 8.986H18.61l.22-9.999h3.939l1.167 7.645h.049zm-19.14-.48c.074.252.074.506.025.759-.073.329-.292.658-.948.658-.608 0-.973-.354-.973-.911v-.988H.37v.76c0 2.227 1.678 2.91 3.502 2.91 1.751 0 3.162-.607 3.405-2.277a4.676 4.676 0 000-1.646c-.237-1.203-1.535-1.917-2.65-2.53-.833-.458-1.565-.86-1.68-1.368a1.946 1.946 0 010-.532c.074-.329.268-.683.876-.683.462-.05.852.304.9.76v.759h2.408v-.71c0-2.176-1.873-2.53-3.235-2.53-1.702 0-3.112.582-3.356 2.227a3.238 3.238 0 000 1.367C.765 6.988 2 7.695 3.098 8.325c.802.46 1.531.878 1.747 1.422zm31.25.733a1.493 1.493 0 00-.024-.734c-.209-.554-.951-.978-1.763-1.441-1.08-.616-2.281-1.302-2.517-2.457a3.568 3.568 0 01-.024-1.342c.267-1.62 1.63-2.202 3.331-2.202 1.362 0 3.21.354 3.21 2.506v.709H35.95v-.734c-.025-.456-.438-.81-.876-.76-.608 0-.802.33-.875.658-.025.177-.025.33 0 .507.104.5.831.901 1.66 1.36 1.102.608 2.384 1.317 2.62 2.487a4.537 4.537 0 010 1.62c-.22 1.646-1.63 2.253-3.356 2.253-1.776 0-3.453-.658-3.453-2.86v-.76h2.553v.962c0 .532.365.886.948.886.633 0 .852-.329.924-.658zm8.05.583c.438.05.827-.279.924-.71.024-.126.024-.252.024-.379V2.583h2.432v7.164c0 .101-.008.268-.014.411-.005.108-.01.204-.01.247-.17 1.874-1.58 2.481-3.356 2.481-1.775 0-3.186-.607-3.356-2.48 0-.044-.005-.14-.01-.248a10.62 10.62 0 01-.014-.41V2.582h2.432v7.392c0 .127 0 .253.024.38.097.455.486.76.924.709zm21.012-.81c-.025.253-.268.709-.973.709s-.948-.456-.948-.71c-.025-.126-.025-.252-.025-.379V5.292c0-.177.025-.329.049-.48.097-.456.486-.786.948-.735.754 0 .925.506.973.734.024.127.024.253.024.38v.557h2.432v-.33c0-.227 0-.43-.024-.657-.194-1.899-1.678-2.481-3.38-2.481-1.703 0-3.162.607-3.38 2.48l-.007.063a5.358 5.358 0 00-.042.596v4.227c0 .177 0 .33.024.658.17 1.823 1.678 2.481 3.38 2.481 1.703 0 3.235-.658 3.38-2.48.025-.33.025-.482.025-.659V6.963h-3.405V8.43h.973v1.443c0 .127 0 .253-.024.38z" fill="#000"/></svg>